P3
20 20
255
0
0
51
0
0
51
0
0
51
0
0
51
0
0
51
0
0
51
0
0
51
0
0
51
0
0
51
0
0
51
102
0
0
102
0
0
102
0
0
102
0
0
102
0
0
102
0
0
102
0
0
102
0
0
102
0
0
102
0
0
0
0
51
0
0
51
0
0
51
0
0
51
0
0
51
0
0
51
0
0
51
0
0
51
0
0
51
102
0
0
102
0
0
102
0
0
102
0
0
102
0
0
102
0
0
102
0
0
102
0
0
102
0
0
102
0
0
102
0
0
0
0
51
0
0
51
0
0
51
0
0
51
0
0
51
0
0
51
0
0
51
0
0
51
102
0
0
102
0
0
102
0
0
102
0
0
102
0
0
102
0
0
102
0
0
102
0
0
102
0
0
102
0
0
102
0
0
102
0
0
0
0
51
0
0
51
0
0
51
0
0
51
0
0
51
0
0
51
0
0
51
102
0
0
102
0
0
102
0
0
102
0
0
102
0
0
102
0
0
102
0
0
102
0
0
102
0
0
102
0
0
102
0
0
102
0
0
102
0
0
0
0
51
0
0
51
0
0
51
0
0
51
0
0
51
0
0
51
102
0
0
102
0
0
102
0
0
102
0
0
102
0
0
102
0
0
102
0
0
102
0
0
102
0
0
102
0
0
102
0
0
102
0
0
102
0
0
102
0
0
0
0
51
0
0
51
0
0
51
0
0
51
0
0
51
102
0
0
102
0
0
102
0
0
102
0
0
102
0
0
102
0
0
102
0
0
102
0
0
102
0
0
102
0
0
102
0
0
102
0
0
102
0
0
102
0
0
102
0
0
0
0
51
0
0
51
0
0
51
0
0
51
102
0
0
102
0
0
102
0
0
102
0
0
102
0
0
102
0
0
102
0
0
102
0
0
102
0
0
102
0
0
102
0
0
102
0
0
102
0
0
102
0
0
102
0
0
102
0
0
0
0
51
0
0
51
0
0
51
0
0
51
102
0
0
102
0
0
102
0
0
102
0
0
102
0
0
102
0
0
102
0
0
102
0
0
102
0
0
102
0
0
102
0
0
102
0
0
102
0
0
102
0
0
102
0
0
102
0
0
0
0
51
0
0
51
0
0
51
102
0
0
102
0
0
102
0
0
102
0
0
102
0
0
102
0
0
102
0
0
102
0
0
102
0
0
102
0
0
102
0
0
102
0
0
102
0
0
102
0
0
102
0
0
102
0
0
102
0
0
0
0
51
0
0
51
102
0
0
102
0
0
102
0
0
102
0
0
102
0
0
102
0
0
102
0
0
102
0
0
102
0
0
102
0
0
102
0
0
102
0
0
102
0
0
102
0
0
102
0
0
102
0
0
102
0
0
102
0
0
0
0
51
0
0
51
102
0
0
102
0
0
102
0
0
102
0
0
102
0
0
102
0
0
102
0
0
102
0
0
102
0
0
102
0
0
102
0
0
102
0
0
102
0
0
102
0
0
102
0
0
102
0
0
102
0
0
102
0
0
0
0
51
102
0
0
102
0
0
102
0
0
102
0
0
102
0
0
102
0
0
102
0
0
102
0
0
102
0
0
102
0
0
102
0
0
102
0
0
102
0
0
102
0
0
102
0
0
102
0
0
102
0
0
102
0
0
102
0
0
0
0
51
102
0
0
102
0
0
102
0
0
102
0
0
102
0
0
102
0
0
102
0
0
102
0
0
102
0
0
102
0
0
102
0
0
102
0
0
102
0
0
102
0
0
102
0
0
102
0
0
102
0
0
102
0
0
102
0
0
102
0
0
102
0
0
102
0
0
102
0
0
102
0
0
102
0
0
102
0
0
102
0
0
102
0
0
102
0
0
102
0
0
102
0
0
102
0
0
102
0
0
102
0
0
102
0
0
102
0
0
102
0
0
102
0
0
102
0
0
102
0
0
102
0
0
102
0
0
102
0
0
102
0
0
102
0
0
102
0
0
102
0
0
102
0
0
102
0
0
102
0
0
102
0
0
102
0
0
102
0
0
102
0
0
102
0
0
102
0
0
102
0
0
102
0
0
102
0
0
102
0
0
102
0
0
102
0
0
102
0
0
102
0
0
102
0
0
102
0
0
102
0
0
102
0
0
102
0
0
102
0
0
102
0
0
102
0
0
102
0
0
102
0
0
102
0
0
102
0
0
102
0
0
102
0
0
102
0
0
102
0
0
102
0
0
102
0
0
102
0
0
102
0
0
102
0
0
102
0
0
102
0
0
102
0
0
102
0
0
102
0
0
102
0
0
102
0
0
102
0
0
102
0
0
102
0
0
102
0
0
102
0
0
102
0
0
102
0
0
102
0
0
102
0
0
102
0
0
102
0
0
102
0
0
102
0
0
102
0
0
102
0
0
102
0
0
102
0
0
102
0
0
102
0
0
102
0
0
102
0
0
102
0
0
102
0
0
102
0
0
102
0
0
102
0
0
102
0
0
102
0
0
102
0
0
102
0
0
102
0
0
102
0
0
102
0
0
102
0
0
102
0
0
102
0
0
102
0
0
102
0
0
102
0
0
102
0
0
102
0
0
102
0
0
102
0
0
102
0
0
102
0
0
102
0
0
102
0
0
102
0
0
102
0
0
102
0
0
102
0
0
102
0
0
102
0
0
102
0
0
102
0
0
102
0
0
102
0
0
102
0
0
102
0
0
102
0
0
102
0
0
102
0
0
102
0
0
102
0
0
102
0
0
102
0
0
102
0
0
