P3
20 20
255
0
0
202
0
0
202
0
0
202
0
0
201
0
0
201
0
0
201
0
0
201
0
0
200
0
0
200
0
0
200
241
0
0
248
0
0
250
0
0
251
0
0
252
0
0
252
0
0
251
0
0
251
0
0
250
0
0
249
0
0
0
0
202
0
0
202
0
0
202
0
0
201
0
0
201
0
0
201
0
0
200
0
0
200
0
0
200
244
0
0
249
0
0
251
0
0
252
0
0
253
0
0
253
0
0
252
0
0
252
0
0
251
0
0
250
0
0
249
0
0
0
0
202
0
0
202
0
0
201
0
0
201
0
0
201
0
0
201
0
0
200
0
0
200
245
0
0
250
0
0
252
0
0
253
0
0
254
0
0
254
0
0
253
0
0
253
0
0
252
0
0
251
0
0
250
0
0
249
0
0
0
0
202
0
0
202
0
0
201
0
0
201
0
0
201
0
0
201
0
0
200
245
0
0
250
0
0
252
0
0
254
0
0
254
0
0
254
0
0
254
0
0
254
0
0
253
0
0
252
0
0
251
0
0
250
0
0
248
0
0
0
0
202
0
0
202
0
0
201
0
0
201
0
0
201
0
0
201
245
0
0
250
0
0
252
0
0
254
0
0
254
0
0
254
0
0
254
0
0
254
0
0
253
0
0
252
0
0
252
0
0
251
0
0
250
0
0
249
1
1
0
0
202
0
0
201
0
0
201
0
0
201
0
0
201
243
0
0
249
0
0
252
0
0
253
0
0
254
0
0
254
0
0
254
0
0
254
0
0
254
0
0
253
0
0
252
0
0
252
0
0
251
1
1
251
3
3
251
4
4
0
0
202
0
0
201
0
0
201
0
0
201
239
0
0
247
0
0
251
0
0
253
0
0
254
0
0
254
0
0
254
0
0
254
0
0
254
0
0
253
0
0
253
0
0
253
1
1
253
3
3
254
5
5
255
8
8
255
11
11
0
0
201
0
0
201
0
0
201
0
0
201
245
0
0
249
0
0
252
0
0
253
0
0
254
0
0
254
0
0
254
0
0
253
0
0
253
0
0
253
0
0
253
2
2
255
4
4
255
8
8
255
13
13
255
19
19
255
24
24
0
0
201
0
0
201
0
0
201
242
0
0
247
0
0
250
0
0
252
0
0
253
0
0
253
0
0
253
0
0
253
0
0
253
0
0
253
0
0
253
2
2
255
5
5
255
11
11
255
18
18
255
28
28
255
37
37
255
45
45
0
0
201
1
1
201
237
0
0
245
0
0
248
0
0
250
0
0
251
0
0
252
0
0
252
0
0
252
0
0
252
0
0
252
0
0
253
2
2
255
5
5
255
12
12
255
22
22
255
35
35
255
50
50
255
64
64
255
74
74
1
1
202
1
1
202
241
0
0
246
0
0
248
0
0
250
0
0
251
0
0
251
0
0
251
0
0
251
0
0
251
0
0
252
1
1
254
5
5
255
11
11
255
22
22
255
38
38
255
58
58
255
78
78
255
96
96
255
108
108
1
1
202
236
0
0
243
0
0
246
0
0
248
0
0
249
0
0
250
0
0
250
0
0
250
0
0
250
0
0
251
1
1
252
3
3
255
9
9
255
19
19
255
36
36
255
58
58
255
84
84
255
110
110
255
130
130
255
143
143
2
2
202
239
0
0
243
0
0
246
0
0
247
0
0
248
0
0
249
0
0
249
0
0
249
0
0
249
0
0
250
2
2
254
6
6
255
15
15
255
30
30
255
52
52
255
79
79
255
110
110
255
139
139
255
160
160
255
171
171
232
0
0
239
0
0
243
0
0
245
0
0
246
0
0
247
0
0
247
0
0
248
0
0
248
0
0
248
1
1
250
3
3
255
9
9
255
21
21
255
40
40
255
66
66
255
98
98
255
131
131
255
160
160
255
180
180
255
187
187
234
0
0
239
0
0
242
0
0
244
0
0
245
0
0
246
0
0
246
0
0
246
0
0
246
0
0
247
1
1
250
5
5
255
13
13
255
27
27
255
48
48
255
77
77
255
110
110
255
143
143
255
170
170
255
187
187
255
190
190
235
0
0
239
0
0
241
0
0
243
0
0
244
0
0
244
0
0
244
0
0
244
0
0
245
0
0
246
2
2
249
6
6
255
15
15
255
31
31
255
53
53
255
82
82
255
114
114
255
144
144
255
167
167
255
179
179
255
178
178
234
0
0
238
0
0
240
0
0
241
0
0
242
0
0
242
0
0
243
0
0
243
0
0
243
0
0
244
2
2
248
7
7
255
17
17
255
32
32
255
53
53
255
80
80
255
108
108
255
133
133
255
151
151
255
159
159
255
155
155
234
0
0
237
0
0
238
0
0
240
0
0
240
0
0
241
0
0
241
0
0
241
0
0
241
1
1
243
3
3
247
8
8
254
16
16
255
30
30
255
49
49
255
72
72
255
95
95
255
115
115
255
128
128
255
132
132
255
126
126
232
0
0
235
0
0
237
0
0
238
0
0
238
0
0
239
0
0
239
0
0
239
0
0
239
1
1
240
3
3
244
7
7
251
15
15
255
26
26
255
42
42
255
60
60
255
77
77
255
92
92
255
100
100
255
101
101
255
96
96
231
0
0
233
0
0
235
0
0
236
0
0
236
0
0
236
0
0
236
0
0
236
0
0
237
0
0
238
2
2
240
6
6
246
12
12
254
21
21
255
33
33
255
46
46
255
59
59
255
68
68
255
73
73
255
73
73
255
67
67
